  0
SECTION
  2
HEADER
  9
$ANGBASE
  50
0.0
  9
$ANGDIR
  70
1
  9
$MEASUREMENT
  70
1
  0
ENDSEC
  0
SECTION
  2
TABLES
  0
TABLE
  2
LTYPE
  70
4
  0
LTYPE
  5
40F
  2
CONTINUOUS
  70
0
  3
Solid line
  72
65
  73
0
  40
0.0
  0
LTYPE
  5
410
  2
DASHDOT
 70
0
  3
Dash Dot ____ _ ____ _
 72
65
 73
4
 40
2.0
 49
1.25
 49
-0.25
 49
0.25
 49
-0.25
  0
LTYPE
  5
411
  2
DASHED
 70
0
  3
Dashed __ __ __ __ __
 72
65
 73
2
 40
0.75
 49
0.5
 49
-0.25
  0
LTYPE
  5
43B
  2
DOTTED
 70
0
  3
Dotted .  .  .  .
 72
65
 73
2
 40
0.2
 49
0.0
 49
-0.2
  0
ENDTAB
  0
TABLE
  2
STYLE
  70
4
  0
STYLE
  2
KICAD
  70
0
  40
0
  41
1
  42
1
  50
0
  71
0
  3
isocp.shx
  0
STYLE
  2
KICADB
  70
0
  40
0
  41
1
  42
1
  50
0
  71
0
  3
isocp.shx
  0
STYLE
  2
KICADI
  70
0
  40
0
  41
1
  42
1
  50
15
  71
0
  3
isocp.shx
  0
STYLE
  2
KICADBI
  70
0
  40
0
  41
1
  42
1
  50
15
  71
0
  3
isocp.shx
  0
ENDTAB
  0
TABLE
  2
LAYER
  70
1
  0
LAYER
  2
BLACK
  70
0
  62
7
  6
CONTINUOUS
  0
ENDTAB
  0
ENDSEC
  0
SECTION
  2
ENTITIES
0
LINE
8
BLACK
6
CONTINUOUS
10
149.007
20
-62.1754
11
149.007
21
-62.1754
0
LINE
8
BLACK
6
CONTINUOUS
10
149.007
20
-62.1754
11
149.299
21
-62.2039
0
LINE
8
BLACK
6
CONTINUOUS
10
149.299
20
-62.2039
11
149.299
21
-62.2039
0
LINE
8
BLACK
6
CONTINUOUS
10
149.299
20
-62.2039
11
149.299
21
-62.2039
0
LINE
8
BLACK
6
CONTINUOUS
10
149.299
20
-62.2039
11
149.3
21
-62.204
0
LINE
8
BLACK
6
CONTINUOUS
10
149.3
20
-62.204
11
149.306
21
-62.2054
0
LINE
8
BLACK
6
CONTINUOUS
10
149.306
20
-62.2054
11
149.313
21
-62.2068
0
LINE
8
BLACK
6
CONTINUOUS
10
149.313
20
-62.2068
11
149.593
21
-62.2914
0
LINE
8
BLACK
6
CONTINUOUS
10
149.593
20
-62.2914
11
149.594
21
-62.2917
0
LINE
8
BLACK
6
CONTINUOUS
10
149.594
20
-62.2917
11
149.601
21
-62.2944
0
LINE
8
BLACK
6
CONTINUOUS
10
149.601
20
-62.2944
11
149.607
21
-62.297
0
LINE
8
BLACK
6
CONTINUOUS
10
149.607
20
-62.297
11
149.865
21
-62.4344
0
LINE
8
BLACK
6
CONTINUOUS
10
149.865
20
-62.4344
11
149.865
21
-62.4344
0
LINE
8
BLACK
6
CONTINUOUS
10
149.865
20
-62.4344
11
149.865
21
-62.4344
0
LINE
8
BLACK
6
CONTINUOUS
10
149.865
20
-62.4344
11
149.866
21
-62.4349
0
LINE
8
BLACK
6
CONTINUOUS
10
149.866
20
-62.4349
11
149.872
21
-62.4387
0
LINE
8
BLACK
6
CONTINUOUS
10
149.872
20
-62.4387
11
149.877
21
-62.4425
0
LINE
8
BLACK
6
CONTINUOUS
10
149.877
20
-62.4425
11
150.104
21
-62.6275
0
LINE
8
BLACK
6
CONTINUOUS
10
150.104
20
-62.6275
11
150.105
21
-62.6282
0
LINE
8
BLACK
6
CONTINUOUS
10
150.105
20
-62.6282
11
150.11
21
-62.633
0
LINE
8
BLACK
6
CONTINUOUS
10
150.11
20
-62.633
11
150.115
21
-62.6378
0
LINE
8
BLACK
6
CONTINUOUS
10
150.115
20
-62.6378
11
150.301
21
-62.8634
0
LINE
8
BLACK
6
CONTINUOUS
10
150.301
20
-62.8634
11
150.302
21
-62.8642
0
LINE
8
BLACK
6
CONTINUOUS
10
150.302
20
-62.8642
11
150.306
21
-62.8699
0
LINE
8
BLACK
6
CONTINUOUS
10
150.306
20
-62.8699
11
150.31
21
-62.8755
0
LINE
8
BLACK
6
CONTINUOUS
10
150.31
20
-62.8755
11
150.449
21
-63.1331
0
LINE
8
BLACK
6
CONTINUOUS
10
150.449
20
-63.1331
11
150.449
21
-63.134
0
LINE
8
BLACK
6
CONTINUOUS
10
150.449
20
-63.134
11
150.452
21
-63.1403
0
LINE
8
BLACK
6
CONTINUOUS
10
150.452
20
-63.1403
11
150.454
21
-63.1465
0
LINE
8
BLACK
6
CONTINUOUS
10
150.454
20
-63.1465
11
150.541
21
-63.4262
0
LINE
8
BLACK
6
CONTINUOUS
10
150.541
20
-63.4262
11
150.541
21
-63.4272
0
LINE
8
BLACK
6
CONTINUOUS
10
150.541
20
-63.4272
11
150.543
21
-63.4339
0
LINE
8
BLACK
6
CONTINUOUS
10
150.543
20
-63.4339
11
150.544
21
-63.4405
0
LINE
8
BLACK
6
CONTINUOUS
10
150.544
20
-63.4405
11
150.575
21
-63.7317
0
LINE
8
BLACK
6
CONTINUOUS
10
150.575
20
-63.7317
11
150.575
21
-63.7327
0
LINE
8
BLACK
6
CONTINUOUS
10
150.575
20
-63.7327
11
150.575
21
-63.736
0
LINE
8
BLACK
6
CONTINUOUS
10
150.575
20
-63.736
11
150.575
21
-63.7393
0
LINE
8
BLACK
6
CONTINUOUS
10
150.575
20
-63.7393
11
150.575
21
-63.7479
0
LINE
8
BLACK
6
CONTINUOUS
10
150.575
20
-63.7479
11
150.601
21
-64.2372
0
LINE
8
BLACK
6
CONTINUOUS
10
150.601
20
-64.2372
11
150.768
21
-65.0777
0
LINE
8
BLACK
6
CONTINUOUS
10
150.768
20
-65.0777
11
151.085
21
-65.8723
0
LINE
8
BLACK
6
CONTINUOUS
10
151.085
20
-65.8723
11
151.541
21
-66.5958
0
LINE
8
BLACK
6
CONTINUOUS
10
151.541
20
-66.5958
11
152.122
21
-67.224
0
LINE
8
BLACK
6
CONTINUOUS
10
152.122
20
-67.224
11
152.807
21
-67.7358
0
LINE
8
BLACK
6
CONTINUOUS
10
152.807
20
-67.7358
11
153.575
21
-68.1142
0
LINE
8
BLACK
6
CONTINUOUS
10
153.575
20
-68.1142
11
154.398
21
-68.3464
0
LINE
8
BLACK
6
CONTINUOUS
10
154.398
20
-68.3464
11
155.253
21
-68.425
0
LINE
8
BLACK
6
CONTINUOUS
10
155.253
20
-68.425
11
158.254
21
-68.425
0
LINE
8
BLACK
6
CONTINUOUS
10
158.254
20
-68.425
11
158.257
21
-68.4253
0
LINE
8
BLACK
6
CONTINUOUS
10
158.257
20
-68.4253
11
159.122
21
-68.5049
0
LINE
8
BLACK
6
CONTINUOUS
10
159.122
20
-68.5049
11
159.124
21
-68.5051
0
LINE
8
BLACK
6
CONTINUOUS
10
159.124
20
-68.5051
11
159.13
21
-68.5063
0
LINE
8
BLACK
6
CONTINUOUS
10
159.13
20
-68.5063
11
159.136
21
-68.5074
0
LINE
8
BLACK
6
CONTINUOUS
10
159.136
20
-68.5074
11
159.973
21
-68.7433
0
LINE
8
BLACK
6
CONTINUOUS
10
159.973
20
-68.7433
11
159.974
21
-68.7439
0
LINE
8
BLACK
6
CONTINUOUS
10
159.974
20
-68.7439
11
159.98
21
-68.7461
0
LINE
8
BLACK
6
CONTINUOUS
10
159.98
20
-68.7461
11
159.985
21
-68.7482
0
LINE
8
BLACK
6
CONTINUOUS
10
159.985
20
-68.7482
11
160.765
21
-69.1327
0
LINE
8
BLACK
6
CONTINUOUS
10
160.765
20
-69.1327
11
160.765
21
-69.1327
0
LINE
8
BLACK
6
CONTINUOUS
10
160.765
20
-69.1327
11
160.765
21
-69.1327
0
LINE
8
BLACK
6
CONTINUOUS
10
160.765
20
-69.1327
11
160.767
21
-69.1336
0
LINE
8
BLACK
6
CONTINUOUS
10
160.767
20
-69.1336
11
160.772
21
-69.1368
0
LINE
8
BLACK
6
CONTINUOUS
10
160.772
20
-69.1368
11
160.777
21
-69.1399
0
LINE
8
BLACK
6
CONTINUOUS
10
160.777
20
-69.1399
11
161.473
21
-69.66
0
LINE
8
BLACK
6
CONTINUOUS
10
161.473
20
-69.66
11
161.475
21
-69.6612
0
LINE
8
BLACK
6
CONTINUOUS
10
161.475
20
-69.6612
11
161.479
21
-69.6652
0
LINE
8
BLACK
6
CONTINUOUS
10
161.479
20
-69.6652
11
161.483
21
-69.6692
0
LINE
8
BLACK
6
CONTINUOUS
10
161.483
20
-69.6692
11
162.074
21
-70.3075
0
LINE
8
BLACK
6
CONTINUOUS
10
162.074
20
-70.3075
11
162.075
21
-70.3089
0
LINE
8
BLACK
6
CONTINUOUS
10
162.075
20
-70.3089
11
162.078
21
-70.3137
0
LINE
8
BLACK
6
CONTINUOUS
10
162.078
20
-70.3137
11
162.082
21
-70.3184
0
LINE
8
BLACK
6
CONTINUOUS
10
162.082
20
-70.3184
11
162.546
21
-71.0535
0
LINE
8
BLACK
6
CONTINUOUS
10
162.546
20
-71.0535
11
162.547
21
-71.0552
0
LINE
8
BLACK
6
CONTINUOUS
10
162.547
20
-71.0552
11
162.549
21
-71.0605
0
LINE
8
BLACK
6
CONTINUOUS
10
162.549
20
-71.0605
11
162.552
21
-71.0658
0
LINE
8
BLACK
6
CONTINUOUS
10
162.552
20
-71.0658
11
162.874
21
-71.8731
0
LINE
8
BLACK
6
CONTINUOUS
10
162.874
20
-71.8731
11
162.875
21
-71.875
0
LINE
8
BLACK
6
CONTINUOUS
10
162.875
20
-71.875
11
162.876
21
-71.8806
0
LINE
8
BLACK
6
CONTINUOUS
10
162.876
20
-71.8806
11
162.878
21
-71.8863
0
LINE
8
BLACK
6
CONTINUOUS
10
162.878
20
-71.8863
11
163.048
21
-72.7389
0
LINE
8
BLACK
6
CONTINUOUS
10
163.048
20
-72.7389
11
163.048
21
-72.7408
0
LINE
8
BLACK
6
CONTINUOUS
10
163.048
20
-72.7408
11
163.048
21
-72.7452
0
LINE
8
BLACK
6
CONTINUOUS
10
163.048
20
-72.7452
11
163.049
21
-72.7496
0
LINE
8
BLACK
6
CONTINUOUS
10
163.049
20
-72.7496
11
163.075
21
-73.2444
0
LINE
8
BLACK
6
CONTINUOUS
10
163.075
20
-73.2444
11
163.075
21
-73.2463
0
LINE
8
BLACK
6
CONTINUOUS
10
163.075
20
-73.2463
11
163.075
21
-103.754
0
LINE
8
BLACK
6
CONTINUOUS
10
163.075
20
-103.754
11
163.075
21
-103.757
0
LINE
8
BLACK
6
CONTINUOUS
10
163.075
20
-103.757
11
162.995
21
-104.622
0
LINE
8
BLACK
6
CONTINUOUS
10
162.995
20
-104.622
11
162.995
21
-104.624
0
LINE
8
BLACK
6
CONTINUOUS
10
162.995
20
-104.624
11
162.994
21
-104.63
0
LINE
8
BLACK
6
CONTINUOUS
10
162.994
20
-104.63
11
162.993
21
-104.636
0
LINE
8
BLACK
6
CONTINUOUS
10
162.993
20
-104.636
11
162.757
21
-105.473
0
LINE
8
BLACK
6
CONTINUOUS
10
162.757
20
-105.473
11
162.756
21
-105.474
0
LINE
8
BLACK
6
CONTINUOUS
10
162.756
20
-105.474
11
162.754
21
-105.48
0
LINE
8
BLACK
6
CONTINUOUS
10
162.754
20
-105.48
11
162.752
21
-105.485
0
LINE
8
BLACK
6
CONTINUOUS
10
162.752
20
-105.485
11
162.367
21
-106.265
0
LINE
8
BLACK
6
CONTINUOUS
10
162.367
20
-106.265
11
162.366
21
-106.267
0
LINE
8
BLACK
6
CONTINUOUS
10
162.366
20
-106.267
11
162.363
21
-106.272
0
LINE
8
BLACK
6
CONTINUOUS
10
162.363
20
-106.272
11
162.36
21
-106.277
0
LINE
8
BLACK
6
CONTINUOUS
10
162.36
20
-106.277
11
161.84
21
-106.973
0
LINE
8
BLACK
6
CONTINUOUS
10
161.84
20
-106.973
11
161.839
21
-106.975
0
LINE
8
BLACK
6
CONTINUOUS
10
161.839
20
-106.975
11
161.835
21
-106.979
0
LINE
8
BLACK
6
CONTINUOUS
10
161.835
20
-106.979
11
161.831
21
-106.983
0
LINE
8
BLACK
6
CONTINUOUS
10
161.831
20
-106.983
11
161.193
21
-107.573
0
LINE
8
BLACK
6
CONTINUOUS
10
161.193
20
-107.573
11
161.193
21
-107.574
0
LINE
8
BLACK
6
CONTINUOUS
10
161.193
20
-107.574
11
161.193
21
-107.574
0
LINE
8
BLACK
6
CONTINUOUS
10
161.193
20
-107.574
11
161.191
21
-107.575
0
LINE
8
BLACK
6
CONTINUOUS
10
161.191
20
-107.575
11
161.186
21
-107.578
0
LINE
8
BLACK
6
CONTINUOUS
10
161.186
20
-107.578
11
161.182
21
-107.582
0
LINE
8
BLACK
6
CONTINUOUS
10
161.182
20
-107.582
11
160.446
21
-108.046
0
LINE
8
BLACK
6
CONTINUOUS
10
160.446
20
-108.046
11
160.445
21
-108.047
0
LINE
8
BLACK
6
CONTINUOUS
10
160.445
20
-108.047
11
160.44
21
-108.049
0
LINE
8
BLACK
6
CONTINUOUS
10
160.44
20
-108.049
11
160.434
21
-108.052
0
LINE
8
BLACK
6
CONTINUOUS
10
160.434
20
-108.052
11
159.627
21
-108.374
0
LINE
8
BLACK
6
CONTINUOUS
10
159.627
20
-108.374
11
159.625
21
-108.375
0
LINE
8
BLACK
6
CONTINUOUS
10
159.625
20
-108.375
11
159.619
21
-108.376
0
LINE
8
BLACK
6
CONTINUOUS
10
159.619
20
-108.376
11
159.614
21
-108.378
0
LINE
8
BLACK
6
CONTINUOUS
10
159.614
20
-108.378
11
158.761
21
-108.548
0
LINE
8
BLACK
6
CONTINUOUS
10
158.761
20
-108.548
11
158.759
21
-108.548
0
LINE
8
BLACK
6
CONTINUOUS
10
158.759
20
-108.548
11
158.755
21
-108.548
0
LINE
8
BLACK
6
CONTINUOUS
10
158.755
20
-108.548
11
158.75
21
-108.549
0
LINE
8
BLACK
6
CONTINUOUS
10
158.75
20
-108.549
11
158.254
21
-108.575
0
LINE
8
BLACK
6
CONTINUOUS
10
158.254
20
-108.575
11
157.763
21
-108.601
0
LINE
8
BLACK
6
CONTINUOUS
10
157.763
20
-108.601
11
156.922
21
-108.768
0
LINE
8
BLACK
6
CONTINUOUS
10
156.922
20
-108.768
11
156.128
21
-109.085
0
LINE
8
BLACK
6
CONTINUOUS
10
156.128
20
-109.085
11
155.404
21
-109.541
0
LINE
8
BLACK
6
CONTINUOUS
10
155.404
20
-109.541
11
154.776
21
-110.122
0
LINE
8
BLACK
6
CONTINUOUS
10
154.776
20
-110.122
11
154.264
21
-110.807
0
LINE
8
BLACK
6
CONTINUOUS
10
154.264
20
-110.807
11
153.886
21
-111.575
0
LINE
8
BLACK
6
CONTINUOUS
10
153.886
20
-111.575
11
153.654
21
-112.398
0
LINE
8
BLACK
6
CONTINUOUS
10
153.654
20
-112.398
11
153.575
21
-113.257
0
LINE
8
BLACK
6
CONTINUOUS
10
153.575
20
-113.257
11
153.495
21
-114.122
0
LINE
8
BLACK
6
CONTINUOUS
10
153.495
20
-114.122
11
153.495
21
-114.124
0
LINE
8
BLACK
6
CONTINUOUS
10
153.495
20
-114.124
11
153.494
21
-114.13
0
LINE
8
BLACK
6
CONTINUOUS
10
153.494
20
-114.13
11
153.493
21
-114.136
0
LINE
8
BLACK
6
CONTINUOUS
10
153.493
20
-114.136
11
153.257
21
-114.973
0
LINE
8
BLACK
6
CONTINUOUS
10
153.257
20
-114.973
11
153.256
21
-114.974
0
LINE
8
BLACK
6
CONTINUOUS
10
153.256
20
-114.974
11
153.254
21
-114.98
0
LINE
8
BLACK
6
CONTINUOUS
10
153.254
20
-114.98
11
153.252
21
-114.985
0
LINE
8
BLACK
6
CONTINUOUS
10
153.252
20
-114.985
11
152.867
21
-115.765
0
LINE
8
BLACK
6
CONTINUOUS
10
152.867
20
-115.765
11
152.866
21
-115.767
0
LINE
8
BLACK
6
CONTINUOUS
10
152.866
20
-115.767
11
152.863
21
-115.772
0
LINE
8
BLACK
6
CONTINUOUS
10
152.863
20
-115.772
11
152.86
21
-115.777
0
LINE
8
BLACK
6
CONTINUOUS
10
152.86
20
-115.777
11
152.34
21
-116.473
0
LINE
8
BLACK
6
CONTINUOUS
10
152.34
20
-116.473
11
152.339
21
-116.475
0
LINE
8
BLACK
6
CONTINUOUS
10
152.339
20
-116.475
11
152.335
21
-116.479
0
LINE
8
BLACK
6
CONTINUOUS
10
152.335
20
-116.479
11
152.331
21
-116.483
0
LINE
8
BLACK
6
CONTINUOUS
10
152.331
20
-116.483
11
151.693
21
-117.073
0
LINE
8
BLACK
6
CONTINUOUS
10
151.693
20
-117.073
11
151.693
21
-117.074
0
LINE
8
BLACK
6
CONTINUOUS
10
151.693
20
-117.074
11
151.693
21
-117.074
0
LINE
8
BLACK
6
CONTINUOUS
10
151.693
20
-117.074
11
151.691
21
-117.075
0
LINE
8
BLACK
6
CONTINUOUS
10
151.691
20
-117.075
11
151.686
21
-117.078
0
LINE
8
BLACK
6
CONTINUOUS
10
151.686
20
-117.078
11
151.682
21
-117.082
0
LINE
8
BLACK
6
CONTINUOUS
10
151.682
20
-117.082
11
150.946
21
-117.546
0
LINE
8
BLACK
6
CONTINUOUS
10
150.946
20
-117.546
11
150.945
21
-117.547
0
LINE
8
BLACK
6
CONTINUOUS
10
150.945
20
-117.547
11
150.94
21
-117.549
0
LINE
8
BLACK
6
CONTINUOUS
10
150.94
20
-117.549
11
150.934
21
-117.552
0
LINE
8
BLACK
6
CONTINUOUS
10
150.934
20
-117.552
11
150.127
21
-117.874
0
LINE
8
BLACK
6
CONTINUOUS
10
150.127
20
-117.874
11
150.125
21
-117.875
0
LINE
8
BLACK
6
CONTINUOUS
10
150.125
20
-117.875
11
150.119
21
-117.876
0
LINE
8
BLACK
6
CONTINUOUS
10
150.119
20
-117.876
11
150.114
21
-117.878
0
LINE
8
BLACK
6
CONTINUOUS
10
150.114
20
-117.878
11
149.261
21
-118.048
0
LINE
8
BLACK
6
CONTINUOUS
10
149.261
20
-118.048
11
149.259
21
-118.048
0
LINE
8
BLACK
6
CONTINUOUS
10
149.259
20
-118.048
11
149.255
21
-118.048
0
LINE
8
BLACK
6
CONTINUOUS
10
149.255
20
-118.048
11
149.25
21
-118.049
0
LINE
8
BLACK
6
CONTINUOUS
10
149.25
20
-118.049
11
148.756
21
-118.075
0
LINE
8
BLACK
6
CONTINUOUS
10
148.756
20
-118.075
11
148.754
21
-118.075
0
LINE
8
BLACK
6
CONTINUOUS
10
148.754
20
-118.075
11
131.246
21
-118.075
0
LINE
8
BLACK
6
CONTINUOUS
10
131.246
20
-118.075
11
131.243
21
-118.075
0
LINE
8
BLACK
6
CONTINUOUS
10
131.243
20
-118.075
11
130.378
21
-117.995
0
LINE
8
BLACK
6
CONTINUOUS
10
130.378
20
-117.995
11
130.376
21
-117.995
0
LINE
8
BLACK
6
CONTINUOUS
10
130.376
20
-117.995
11
130.37
21
-117.994
0
LINE
8
BLACK
6
CONTINUOUS
10
130.37
20
-117.994
11
130.364
21
-117.993
0
LINE
8
BLACK
6
CONTINUOUS
10
130.364
20
-117.993
11
129.527
21
-117.757
0
LINE
8
BLACK
6
CONTINUOUS
10
129.527
20
-117.757
11
129.526
21
-117.756
0
LINE
8
BLACK
6
CONTINUOUS
10
129.526
20
-117.756
11
129.52
21
-117.754
0
LINE
8
BLACK
6
CONTINUOUS
10
129.52
20
-117.754
11
129.515
21
-117.752
0
LINE
8
BLACK
6
CONTINUOUS
10
129.515
20
-117.752
11
128.735
21
-117.367
0
LINE
8
BLACK
6
CONTINUOUS
10
128.735
20
-117.367
11
128.733
21
-117.366
0
LINE
8
BLACK
6
CONTINUOUS
10
128.733
20
-117.366
11
128.728
21
-117.363
0
LINE
8
BLACK
6
CONTINUOUS
10
128.728
20
-117.363
11
128.723
21
-117.36
0
LINE
8
BLACK
6
CONTINUOUS
10
128.723
20
-117.36
11
128.027
21
-116.84
0
LINE
8
BLACK
6
CONTINUOUS
10
128.027
20
-116.84
11
128.025
21
-116.839
0
LINE
8
BLACK
6
CONTINUOUS
10
128.025
20
-116.839
11
128.021
21
-116.835
0
LINE
8
BLACK
6
CONTINUOUS
10
128.021
20
-116.835
11
128.017
21
-116.831
0
LINE
8
BLACK
6
CONTINUOUS
10
128.017
20
-116.831
11
127.427
21
-116.193
0
LINE
8
BLACK
6
CONTINUOUS
10
127.427
20
-116.193
11
127.426
21
-116.193
0
LINE
8
BLACK
6
CONTINUOUS
10
127.426
20
-116.193
11
127.426
21
-116.193
0
LINE
8
BLACK
6
CONTINUOUS
10
127.426
20
-116.193
11
127.425
21
-116.191
0
LINE
8
BLACK
6
CONTINUOUS
10
127.425
20
-116.191
11
127.422
21
-116.186
0
LINE
8
BLACK
6
CONTINUOUS
10
127.422
20
-116.186
11
127.418
21
-116.182
0
LINE
8
BLACK
6
CONTINUOUS
10
127.418
20
-116.182
11
126.954
21
-115.446
0
LINE
8
BLACK
6
CONTINUOUS
10
126.954
20
-115.446
11
126.953
21
-115.445
0
LINE
8
BLACK
6
CONTINUOUS
10
126.953
20
-115.445
11
126.951
21
-115.44
0
LINE
8
BLACK
6
CONTINUOUS
10
126.951
20
-115.44
11
126.948
21
-115.434
0
LINE
8
BLACK
6
CONTINUOUS
10
126.948
20
-115.434
11
126.626
21
-114.627
0
LINE
8
BLACK
6
CONTINUOUS
10
126.626
20
-114.627
11
126.625
21
-114.625
0
LINE
8
BLACK
6
CONTINUOUS
10
126.625
20
-114.625
11
126.624
21
-114.619
0
LINE
8
BLACK
6
CONTINUOUS
10
126.624
20
-114.619
11
126.622
21
-114.614
0
LINE
8
BLACK
6
CONTINUOUS
10
126.622
20
-114.614
11
126.452
21
-113.761
0
LINE
8
BLACK
6
CONTINUOUS
10
126.452
20
-113.761
11
126.452
21
-113.759
0
LINE
8
BLACK
6
CONTINUOUS
10
126.452
20
-113.759
11
126.452
21
-113.755
0
LINE
8
BLACK
6
CONTINUOUS
10
126.452
20
-113.755
11
126.451
21
-113.75
0
LINE
8
BLACK
6
CONTINUOUS
10
126.451
20
-113.75
11
126.425
21
-113.254
0
LINE
8
BLACK
6
CONTINUOUS
10
126.425
20
-113.254
11
126.399
21
-112.763
0
LINE
8
BLACK
6
CONTINUOUS
10
126.399
20
-112.763
11
126.232
21
-111.922
0
LINE
8
BLACK
6
CONTINUOUS
10
126.232
20
-111.922
11
125.915
21
-111.128
0
LINE
8
BLACK
6
CONTINUOUS
10
125.915
20
-111.128
11
125.459
21
-110.404
0
LINE
8
BLACK
6
CONTINUOUS
10
125.459
20
-110.404
11
124.878
21
-109.776
0
LINE
8
BLACK
6
CONTINUOUS
10
124.878
20
-109.776
11
124.193
21
-109.264
0
LINE
8
BLACK
6
CONTINUOUS
10
124.193
20
-109.264
11
123.425
21
-108.886
0
LINE
8
BLACK
6
CONTINUOUS
10
123.425
20
-108.886
11
122.602
21
-108.654
0
LINE
8
BLACK
6
CONTINUOUS
10
122.602
20
-108.654
11
121.743
21
-108.575
0
LINE
8
BLACK
6
CONTINUOUS
10
121.743
20
-108.575
11
121.743
21
-108.575
0
LINE
8
BLACK
6
CONTINUOUS
10
121.743
20
-108.575
11
120.878
21
-108.495
0
LINE
8
BLACK
6
CONTINUOUS
10
120.878
20
-108.495
11
120.876
21
-108.495
0
LINE
8
BLACK
6
CONTINUOUS
10
120.876
20
-108.495
11
120.87
21
-108.494
0
LINE
8
BLACK
6
CONTINUOUS
10
120.87
20
-108.494
11
120.864
21
-108.493
0
LINE
8
BLACK
6
CONTINUOUS
10
120.864
20
-108.493
11
120.027
21
-108.257
0
LINE
8
BLACK
6
CONTINUOUS
10
120.027
20
-108.257
11
120.026
21
-108.256
0
LINE
8
BLACK
6
CONTINUOUS
10
120.026
20
-108.256
11
120.02
21
-108.254
0
LINE
8
BLACK
6
CONTINUOUS
10
120.02
20
-108.254
11
120.015
21
-108.252
0
LINE
8
BLACK
6
CONTINUOUS
10
120.015
20
-108.252
11
119.235
21
-107.867
0
LINE
8
BLACK
6
CONTINUOUS
10
119.235
20
-107.867
11
119.233
21
-107.866
0
LINE
8
BLACK
6
CONTINUOUS
10
119.233
20
-107.866
11
119.228
21
-107.863
0
LINE
8
BLACK
6
CONTINUOUS
10
119.228
20
-107.863
11
119.223
21
-107.86
0
LINE
8
BLACK
6
CONTINUOUS
10
119.223
20
-107.86
11
118.527
21
-107.34
0
LINE
8
BLACK
6
CONTINUOUS
10
118.527
20
-107.34
11
118.525
21
-107.339
0
LINE
8
BLACK
6
CONTINUOUS
10
118.525
20
-107.339
11
118.521
21
-107.335
0
LINE
8
BLACK
6
CONTINUOUS
10
118.521
20
-107.335
11
118.517
21
-107.331
0
LINE
8
BLACK
6
CONTINUOUS
10
118.517
20
-107.331
11
117.927
21
-106.693
0
LINE
8
BLACK
6
CONTINUOUS
10
117.927
20
-106.693
11
117.926
21
-106.693
0
LINE
8
BLACK
6
CONTINUOUS
10
117.926
20
-106.693
11
117.926
21
-106.693
0
LINE
8
BLACK
6
CONTINUOUS
10
117.926
20
-106.693
11
117.925
21
-106.691
0
LINE
8
BLACK
6
CONTINUOUS
10
117.925
20
-106.691
11
117.922
21
-106.686
0
LINE
8
BLACK
6
CONTINUOUS
10
117.922
20
-106.686
11
117.918
21
-106.682
0
LINE
8
BLACK
6
CONTINUOUS
10
117.918
20
-106.682
11
117.454
21
-105.946
0
LINE
8
BLACK
6
CONTINUOUS
10
117.454
20
-105.946
11
117.453
21
-105.945
0
LINE
8
BLACK
6
CONTINUOUS
10
117.453
20
-105.945
11
117.451
21
-105.94
0
LINE
8
BLACK
6
CONTINUOUS
10
117.451
20
-105.94
11
117.448
21
-105.934
0
LINE
8
BLACK
6
CONTINUOUS
10
117.448
20
-105.934
11
117.126
21
-105.127
0
LINE
8
BLACK
6
CONTINUOUS
10
117.126
20
-105.127
11
117.125
21
-105.125
0
LINE
8
BLACK
6
CONTINUOUS
10
117.125
20
-105.125
11
117.124
21
-105.119
0
LINE
8
BLACK
6
CONTINUOUS
10
117.124
20
-105.119
11
117.122
21
-105.114
0
LINE
8
BLACK
6
CONTINUOUS
10
117.122
20
-105.114
11
116.952
21
-104.261
0
LINE
8
BLACK
6
CONTINUOUS
10
116.952
20
-104.261
11
116.952
21
-104.259
0
LINE
8
BLACK
6
CONTINUOUS
10
116.952
20
-104.259
11
116.952
21
-104.255
0
LINE
8
BLACK
6
CONTINUOUS
10
116.952
20
-104.255
11
116.951
21
-104.25
0
LINE
8
BLACK
6
CONTINUOUS
10
116.951
20
-104.25
11
116.925
21
-103.756
0
LINE
8
BLACK
6
CONTINUOUS
10
116.925
20
-103.756
11
116.925
21
-103.754
0
LINE
8
BLACK
6
CONTINUOUS
10
116.925
20
-103.754
11
116.925
21
-73.2463
0
LINE
8
BLACK
6
CONTINUOUS
10
116.925
20
-73.2463
11
116.925
21
-73.243
0
LINE
8
BLACK
6
CONTINUOUS
10
116.925
20
-73.243
11
117.005
21
-72.3775
0
LINE
8
BLACK
6
CONTINUOUS
10
117.005
20
-72.3775
11
117.005
21
-72.3756
0
LINE
8
BLACK
6
CONTINUOUS
10
117.005
20
-72.3756
11
117.006
21
-72.3698
0
LINE
8
BLACK
6
CONTINUOUS
10
117.006
20
-72.3698
11
117.007
21
-72.364
0
LINE
8
BLACK
6
CONTINUOUS
10
117.007
20
-72.364
11
117.243
21
-71.5274
0
LINE
8
BLACK
6
CONTINUOUS
10
117.243
20
-71.5274
11
117.244
21
-71.5255
0
LINE
8
BLACK
6
CONTINUOUS
10
117.244
20
-71.5255
11
117.246
21
-71.5201
0
LINE
8
BLACK
6
CONTINUOUS
10
117.246
20
-71.5201
11
117.248
21
-71.5146
0
LINE
8
BLACK
6
CONTINUOUS
10
117.248
20
-71.5146
11
117.633
21
-70.735
0
LINE
8
BLACK
6
CONTINUOUS
10
117.633
20
-70.735
11
117.633
21
-70.735
0
LINE
8
BLACK
6
CONTINUOUS
10
117.633
20
-70.735
11
117.633
21
-70.735
0
LINE
8
BLACK
6
CONTINUOUS
10
117.633
20
-70.735
11
117.634
21
-70.7332
0
LINE
8
BLACK
6
CONTINUOUS
10
117.634
20
-70.7332
11
117.637
21
-70.7283
0
LINE
8
BLACK
6
CONTINUOUS
10
117.637
20
-70.7283
11
117.64
21
-70.7233
0
LINE
8
BLACK
6
CONTINUOUS
10
117.64
20
-70.7233
11
118.16
21
-70.0268
0
LINE
8
BLACK
6
CONTINUOUS
10
118.16
20
-70.0268
11
118.161
21
-70.0252
0
LINE
8
BLACK
6
CONTINUOUS
10
118.161
20
-70.0252
11
118.165
21
-70.0209
0
LINE
8
BLACK
6
CONTINUOUS
10
118.165
20
-70.0209
11
118.169
21
-70.0166
0
LINE
8
BLACK
6
CONTINUOUS
10
118.169
20
-70.0166
11
118.807
21
-69.4265
0
LINE
8
BLACK
6
CONTINUOUS
10
118.807
20
-69.4265
11
118.809
21
-69.4252
0
LINE
8
BLACK
6
CONTINUOUS
10
118.809
20
-69.4252
11
118.814
21
-69.4217
0
LINE
8
BLACK
6
CONTINUOUS
10
118.814
20
-69.4217
11
118.818
21
-69.4181
0
LINE
8
BLACK
6
CONTINUOUS
10
118.818
20
-69.4181
11
119.554
21
-68.9543
0
LINE
8
BLACK
6
CONTINUOUS
10
119.554
20
-68.9543
11
119.555
21
-68.9533
0
LINE
8
BLACK
6
CONTINUOUS
10
119.555
20
-68.9533
11
119.56
21
-68.9507
0
LINE
8
BLACK
6
CONTINUOUS
10
119.56
20
-68.9507
11
119.566
21
-68.9481
0
LINE
8
BLACK
6
CONTINUOUS
10
119.566
20
-68.9481
11
120.373
21
-68.6259
0
LINE
8
BLACK
6
CONTINUOUS
10
120.373
20
-68.6259
11
120.375
21
-68.6252
0
LINE
8
BLACK
6
CONTINUOUS
10
120.375
20
-68.6252
11
120.381
21
-68.6237
0
LINE
8
BLACK
6
CONTINUOUS
10
120.381
20
-68.6237
11
120.386
21
-68.622
0
LINE
8
BLACK
6
CONTINUOUS
10
120.386
20
-68.622
11
121.239
21
-68.4525
0
LINE
8
BLACK
6
CONTINUOUS
10
121.239
20
-68.4525
11
121.241
21
-68.4521
0
LINE
8
BLACK
6
CONTINUOUS
10
121.241
20
-68.4521
11
121.245
21
-68.4518
0
LINE
8
BLACK
6
CONTINUOUS
10
121.245
20
-68.4518
11
121.25
21
-68.4511
0
LINE
8
BLACK
6
CONTINUOUS
10
121.25
20
-68.4511
11
121.744
21
-68.4252
0
LINE
8
BLACK
6
CONTINUOUS
10
121.744
20
-68.4252
11
121.746
21
-68.425
0
LINE
8
BLACK
6
CONTINUOUS
10
121.746
20
-68.425
11
124.748
21
-68.425
0
LINE
8
BLACK
6
CONTINUOUS
10
124.748
20
-68.425
11
125.237
21
-68.3994
0
LINE
8
BLACK
6
CONTINUOUS
10
125.237
20
-68.3994
11
126.078
21
-68.2322
0
LINE
8
BLACK
6
CONTINUOUS
10
126.078
20
-68.2322
11
126.872
21
-67.9152
0
LINE
8
BLACK
6
CONTINUOUS
10
126.872
20
-67.9152
11
127.596
21
-67.4587
0
LINE
8
BLACK
6
CONTINUOUS
10
127.596
20
-67.4587
11
128.224
21
-66.878
0
LINE
8
BLACK
6
CONTINUOUS
10
128.224
20
-66.878
11
128.736
21
-66.1925
0
LINE
8
BLACK
6
CONTINUOUS
10
128.736
20
-66.1925
11
129.114
21
-65.4253
0
LINE
8
BLACK
6
CONTINUOUS
10
129.114
20
-65.4253
11
129.346
21
-64.6019
0
LINE
8
BLACK
6
CONTINUOUS
10
129.346
20
-64.6019
11
129.425
21
-63.7431
0
LINE
8
BLACK
6
CONTINUOUS
10
129.425
20
-63.7431
11
129.425
21
-63.7427
0
LINE
8
BLACK
6
CONTINUOUS
10
129.425
20
-63.7427
11
129.425
21
-63.7427
0
LINE
8
BLACK
6
CONTINUOUS
10
129.425
20
-63.7427
11
129.454
21
-63.4513
0
LINE
8
BLACK
6
CONTINUOUS
10
129.454
20
-63.4513
11
129.454
21
-63.4513
0
LINE
8
BLACK
6
CONTINUOUS
10
129.454
20
-63.4513
11
129.454
21
-63.4513
0
LINE
8
BLACK
6
CONTINUOUS
10
129.454
20
-63.4513
11
129.454
21
-63.4503
0
LINE
8
BLACK
6
CONTINUOUS
10
129.454
20
-63.4503
11
129.455
21
-63.4437
0
LINE
8
BLACK
6
CONTINUOUS
10
129.455
20
-63.4437
11
129.457
21
-63.437
0
LINE
8
BLACK
6
CONTINUOUS
10
129.457
20
-63.437
11
129.541
21
-63.1567
0
LINE
8
BLACK
6
CONTINUOUS
10
129.541
20
-63.1567
11
129.542
21
-63.1557
0
LINE
8
BLACK
6
CONTINUOUS
10
129.542
20
-63.1557
11
129.544
21
-63.1494
0
LINE
8
BLACK
6
CONTINUOUS
10
129.544
20
-63.1494
11
129.547
21
-63.1432
0
LINE
8
BLACK
6
CONTINUOUS
10
129.547
20
-63.1432
11
129.684
21
-62.8847
0
LINE
8
BLACK
6
CONTINUOUS
10
129.684
20
-62.8847
11
129.684
21
-62.8847
0
LINE
8
BLACK
6
CONTINUOUS
10
129.684
20
-62.8847
11
129.684
21
-62.8847
0
LINE
8
BLACK
6
CONTINUOUS
10
129.684
20
-62.8847
11
129.685
21
-62.8838
0
LINE
8
BLACK
6
CONTINUOUS
10
129.685
20
-62.8838
11
129.689
21
-62.8782
0
LINE
8
BLACK
6
CONTINUOUS
10
129.689
20
-62.8782
11
129.692
21
-62.8725
0
LINE
8
BLACK
6
CONTINUOUS
10
129.692
20
-62.8725
11
129.878
21
-62.6456
0
LINE
8
BLACK
6
CONTINUOUS
10
129.878
20
-62.6456
11
129.878
21
-62.6448
0
LINE
8
BLACK
6
CONTINUOUS
10
129.878
20
-62.6448
11
129.883
21
-62.6401
0
LINE
8
BLACK
6
CONTINUOUS
10
129.883
20
-62.6401
11
129.888
21
-62.6353
0
LINE
8
BLACK
6
CONTINUOUS
10
129.888
20
-62.6353
11
130.113
21
-62.4487
0
LINE
8
BLACK
6
CONTINUOUS
10
130.113
20
-62.4487
11
130.114
21
-62.448
0
LINE
8
BLACK
6
CONTINUOUS
10
130.114
20
-62.448
11
130.12
21
-62.4443
0
LINE
8
BLACK
6
CONTINUOUS
10
130.12
20
-62.4443
11
130.126
21
-62.4405
0
LINE
8
BLACK
6
CONTINUOUS
10
130.126
20
-62.4405
11
130.383
21
-62.3012
0
LINE
8
BLACK
6
CONTINUOUS
10
130.383
20
-62.3012
11
130.384
21
-62.3007
0
LINE
8
BLACK
6
CONTINUOUS
10
130.384
20
-62.3007
11
130.39
21
-62.2982
0
LINE
8
BLACK
6
CONTINUOUS
10
130.39
20
-62.2982
11
130.397
21
-62.2956
0
LINE
8
BLACK
6
CONTINUOUS
10
130.397
20
-62.2956
11
130.676
21
-62.209
0
LINE
8
BLACK
6
CONTINUOUS
10
130.676
20
-62.209
11
130.677
21
-62.2087
0
LINE
8
BLACK
6
CONTINUOUS
10
130.677
20
-62.2087
11
130.684
21
-62.2074
0
LINE
8
BLACK
6
CONTINUOUS
10
130.684
20
-62.2074
11
130.691
21
-62.206
0
LINE
8
BLACK
6
CONTINUOUS
10
130.691
20
-62.206
11
130.982
21
-62.1754
0
LINE
8
BLACK
6
CONTINUOUS
10
130.982
20
-62.1754
11
130.983
21
-62.1753
0
LINE
8
BLACK
6
CONTINUOUS
10
130.983
20
-62.1753
11
130.986
21
-62.1754
0
LINE
8
BLACK
6
CONTINUOUS
10
130.986
20
-62.1754
11
130.989
21
-62.175
0
LINE
8
BLACK
6
CONTINUOUS
10
130.989
20
-62.175
11
130.996
21
-62.175
0
LINE
8
BLACK
6
CONTINUOUS
10
130.996
20
-62.175
11
130.996
21
-62.175
0
LINE
8
BLACK
6
CONTINUOUS
10
130.996
20
-62.175
11
149.004
21
-62.175
0
LINE
8
BLACK
6
CONTINUOUS
10
149.004
20
-62.175
11
149.007
21
-62.1754
0
LINE
8
BLACK
6
CONTINUOUS
10
131
20
-62.325
11
130.994
21
-62.325
0
LINE
8
BLACK
6
CONTINUOUS
10
130.994
20
-62.325
11
130.714
21
-62.3545
0
LINE
8
BLACK
6
CONTINUOUS
10
130.714
20
-62.3545
11
130.448
21
-62.4367
0
LINE
8
BLACK
6
CONTINUOUS
10
130.448
20
-62.4367
11
130.203
21
-62.5689
0
LINE
8
BLACK
6
CONTINUOUS
10
130.203
20
-62.5689
11
129.989
21
-62.7462
0
LINE
8
BLACK
6
CONTINUOUS
10
129.989
20
-62.7462
11
129.813
21
-62.9616
0
LINE
8
BLACK
6
CONTINUOUS
10
129.813
20
-62.9616
11
129.683
21
-63.2071
0
LINE
8
BLACK
6
CONTINUOUS
10
129.683
20
-63.2071
11
129.602
21
-63.4733
0
LINE
8
BLACK
6
CONTINUOUS
10
129.602
20
-63.4733
11
129.575
21
-63.7572
0
LINE
8
BLACK
6
CONTINUOUS
10
129.575
20
-63.7572
11
129.495
21
-64.6225
0
LINE
8
BLACK
6
CONTINUOUS
10
129.495
20
-64.6225
11
129.495
21
-64.6244
0
LINE
8
BLACK
6
CONTINUOUS
10
129.495
20
-64.6244
11
129.494
21
-64.6302
0
LINE
8
BLACK
6
CONTINUOUS
10
129.494
20
-64.6302
11
129.493
21
-64.636
0
LINE
8
BLACK
6
CONTINUOUS
10
129.493
20
-64.636
11
129.257
21
-65.4726
0
LINE
8
BLACK
6
CONTINUOUS
10
129.257
20
-65.4726
11
129.256
21
-65.4745
0
LINE
8
BLACK
6
CONTINUOUS
10
129.256
20
-65.4745
11
129.254
21
-65.4799
0
LINE
8
BLACK
6
CONTINUOUS
10
129.254
20
-65.4799
11
129.252
21
-65.4854
0
LINE
8
BLACK
6
CONTINUOUS
10
129.252
20
-65.4854
11
128.867
21
-66.265
0
LINE
8
BLACK
6
CONTINUOUS
10
128.867
20
-66.265
11
128.866
21
-66.2668
0
LINE
8
BLACK
6
CONTINUOUS
10
128.866
20
-66.2668
11
128.863
21
-66.2717
0
LINE
8
BLACK
6
CONTINUOUS
10
128.863
20
-66.2717
11
128.86
21
-66.2767
0
LINE
8
BLACK
6
CONTINUOUS
10
128.86
20
-66.2767
11
128.34
21
-66.9732
0
LINE
8
BLACK
6
CONTINUOUS
10
128.34
20
-66.9732
11
128.339
21
-66.9748
0
LINE
8
BLACK
6
CONTINUOUS
10
128.339
20
-66.9748
11
128.335
21
-66.9791
0
LINE
8
BLACK
6
CONTINUOUS
10
128.335
20
-66.9791
11
128.331
21
-66.9834
0
LINE
8
BLACK
6
CONTINUOUS
10
128.331
20
-66.9834
11
127.693
21
-67.5735
0
LINE
8
BLACK
6
CONTINUOUS
10
127.693
20
-67.5735
11
127.693
21
-67.5735
0
LINE
8
BLACK
6
CONTINUOUS
10
127.693
20
-67.5735
11
127.693
21
-67.5735
0
LINE
8
BLACK
6
CONTINUOUS
10
127.693
20
-67.5735
11
127.691
21
-67.5748
0
LINE
8
BLACK
6
CONTINUOUS
10
127.691
20
-67.5748
11
127.686
21
-67.5783
0
LINE
8
BLACK
6
CONTINUOUS
10
127.686
20
-67.5783
11
127.682
21
-67.5819
0
LINE
8
BLACK
6
CONTINUOUS
10
127.682
20
-67.5819
11
126.946
21
-68.0457
0
LINE
8
BLACK
6
CONTINUOUS
10
126.946
20
-68.0457
11
126.945
21
-68.0467
0
LINE
8
BLACK
6
CONTINUOUS
10
126.945
20
-68.0467
11
126.94
21
-68.0493
0
LINE
8
BLACK
6
CONTINUOUS
10
126.94
20
-68.0493
11
126.934
21
-68.0519
0
LINE
8
BLACK
6
CONTINUOUS
10
126.934
20
-68.0519
11
126.127
21
-68.3741
0
LINE
8
BLACK
6
CONTINUOUS
10
126.127
20
-68.3741
11
126.125
21
-68.3748
0
LINE
8
BLACK
6
CONTINUOUS
10
126.125
20
-68.3748
11
126.119
21
-68.3763
0
LINE
8
BLACK
6
CONTINUOUS
10
126.119
20
-68.3763
11
126.114
21
-68.378
0
LINE
8
BLACK
6
CONTINUOUS
10
126.114
20
-68.378
11
125.261
21
-68.5475
0
LINE
8
BLACK
6
CONTINUOUS
10
125.261
20
-68.5475
11
125.259
21
-68.5479
0
LINE
8
BLACK
6
CONTINUOUS
10
125.259
20
-68.5479
11
125.255
21
-68.5482
0
LINE
8
BLACK
6
CONTINUOUS
10
125.255
20
-68.5482
11
125.25
21
-68.5489
0
LINE
8
BLACK
6
CONTINUOUS
10
125.25
20
-68.5489
11
124.756
21
-68.5748
0
LINE
8
BLACK
6
CONTINUOUS
10
124.756
20
-68.5748
11
124.754
21
-68.575
0
LINE
8
BLACK
6
CONTINUOUS
10
124.754
20
-68.575
11
121.752
21
-68.575
0
LINE
8
BLACK
6
CONTINUOUS
10
121.752
20
-68.575
11
121.263
21
-68.6006
0
LINE
8
BLACK
6
CONTINUOUS
10
121.263
20
-68.6006
11
120.422
21
-68.7678
0
LINE
8
BLACK
6
CONTINUOUS
10
120.422
20
-68.7678
11
119.628
21
-69.0848
0
LINE
8
BLACK
6
CONTINUOUS
10
119.628
20
-69.0848
11
118.904
21
-69.5413
0
LINE
8
BLACK
6
CONTINUOUS
10
118.904
20
-69.5413
11
118.276
21
-70.122
0
LINE
8
BLACK
6
CONTINUOUS
10
118.276
20
-70.122
11
117.764
21
-70.8075
0
LINE
8
BLACK
6
CONTINUOUS
10
117.764
20
-70.8075
11
117.386
21
-71.5747
0
LINE
8
BLACK
6
CONTINUOUS
10
117.386
20
-71.5747
11
117.154
21
-72.3981
0
LINE
8
BLACK
6
CONTINUOUS
10
117.154
20
-72.3981
11
117.075
21
-73.2534
0
LINE
8
BLACK
6
CONTINUOUS
10
117.075
20
-73.2534
11
117.075
21
-103.748
0
LINE
8
BLACK
6
CONTINUOUS
10
117.075
20
-103.748
11
117.101
21
-104.237
0
LINE
8
BLACK
6
CONTINUOUS
10
117.101
20
-104.237
11
117.268
21
-105.078
0
LINE
8
BLACK
6
CONTINUOUS
10
117.268
20
-105.078
11
117.585
21
-105.872
0
LINE
8
BLACK
6
CONTINUOUS
10
117.585
20
-105.872
11
118.041
21
-106.596
0
LINE
8
BLACK
6
CONTINUOUS
10
118.041
20
-106.596
11
118.622
21
-107.224
0
LINE
8
BLACK
6
CONTINUOUS
10
118.622
20
-107.224
11
119.307
21
-107.736
0
LINE
8
BLACK
6
CONTINUOUS
10
119.307
20
-107.736
11
120.075
21
-108.114
0
LINE
8
BLACK
6
CONTINUOUS
10
120.075
20
-108.114
11
120.898
21
-108.346
0
LINE
8
BLACK
6
CONTINUOUS
10
120.898
20
-108.346
11
121.757
21
-108.425
0
LINE
8
BLACK
6
CONTINUOUS
10
121.757
20
-108.425
11
122.622
21
-108.505
0
LINE
8
BLACK
6
CONTINUOUS
10
122.622
20
-108.505
11
122.624
21
-108.505
0
LINE
8
BLACK
6
CONTINUOUS
10
122.624
20
-108.505
11
122.63
21
-108.506
0
LINE
8
BLACK
6
CONTINUOUS
10
122.63
20
-108.506
11
122.636
21
-108.507
0
LINE
8
BLACK
6
CONTINUOUS
10
122.636
20
-108.507
11
123.473
21
-108.743
0
LINE
8
BLACK
6
CONTINUOUS
10
123.473
20
-108.743
11
123.474
21
-108.744
0
LINE
8
BLACK
6
CONTINUOUS
10
123.474
20
-108.744
11
123.48
21
-108.746
0
LINE
8
BLACK
6
CONTINUOUS
10
123.48
20
-108.746
11
123.485
21
-108.748
0
LINE
8
BLACK
6
CONTINUOUS
10
123.485
20
-108.748
11
124.265
21
-109.133
0
LINE
8
BLACK
6
CONTINUOUS
10
124.265
20
-109.133
11
124.265
21
-109.133
0
LINE
8
BLACK
6
CONTINUOUS
10
124.265
20
-109.133
11
124.265
21
-109.133
0
LINE
8
BLACK
6
CONTINUOUS
10
124.265
20
-109.133
11
124.267
21
-109.134
0
LINE
8
BLACK
6
CONTINUOUS
10
124.267
20
-109.134
11
124.272
21
-109.137
0
LINE
8
BLACK
6
CONTINUOUS
10
124.272
20
-109.137
11
124.277
21
-109.14
0
LINE
8
BLACK
6
CONTINUOUS
10
124.277
20
-109.14
11
124.973
21
-109.66
0
LINE
8
BLACK
6
CONTINUOUS
10
124.973
20
-109.66
11
124.975
21
-109.661
0
LINE
8
BLACK
6
CONTINUOUS
10
124.975
20
-109.661
11
124.979
21
-109.665
0
LINE
8
BLACK
6
CONTINUOUS
10
124.979
20
-109.665
11
124.983
21
-109.669
0
LINE
8
BLACK
6
CONTINUOUS
10
124.983
20
-109.669
11
125.574
21
-110.307
0
LINE
8
BLACK
6
CONTINUOUS
10
125.574
20
-110.307
11
125.575
21
-110.309
0
LINE
8
BLACK
6
CONTINUOUS
10
125.575
20
-110.309
11
125.578
21
-110.314
0
LINE
8
BLACK
6
CONTINUOUS
10
125.578
20
-110.314
11
125.582
21
-110.318
0
LINE
8
BLACK
6
CONTINUOUS
10
125.582
20
-110.318
11
126.046
21
-111.054
0
LINE
8
BLACK
6
CONTINUOUS
10
126.046
20
-111.054
11
126.047
21
-111.055
0
LINE
8
BLACK
6
CONTINUOUS
10
126.047
20
-111.055
11
126.049
21
-111.06
0
LINE
8
BLACK
6
CONTINUOUS
10
126.049
20
-111.06
11
126.052
21
-111.066
0
LINE
8
BLACK
6
CONTINUOUS
10
126.052
20
-111.066
11
126.374
21
-111.873
0
LINE
8
BLACK
6
CONTINUOUS
10
126.374
20
-111.873
11
126.375
21
-111.875
0
LINE
8
BLACK
6
CONTINUOUS
10
126.375
20
-111.875
11
126.376
21
-111.881
0
LINE
8
BLACK
6
CONTINUOUS
10
126.376
20
-111.881
11
126.378
21
-111.886
0
LINE
8
BLACK
6
CONTINUOUS
10
126.378
20
-111.886
11
126.548
21
-112.739
0
LINE
8
BLACK
6
CONTINUOUS
10
126.548
20
-112.739
11
126.548
21
-112.741
0
LINE
8
BLACK
6
CONTINUOUS
10
126.548
20
-112.741
11
126.548
21
-112.745
0
LINE
8
BLACK
6
CONTINUOUS
10
126.548
20
-112.745
11
126.549
21
-112.75
0
LINE
8
BLACK
6
CONTINUOUS
10
126.549
20
-112.75
11
126.575
21
-113.246
0
LINE
8
BLACK
6
CONTINUOUS
10
126.575
20
-113.246
11
126.575
21
-113.246
0
LINE
8
BLACK
6
CONTINUOUS
10
126.575
20
-113.246
11
126.601
21
-113.737
0
LINE
8
BLACK
6
CONTINUOUS
10
126.601
20
-113.737
11
126.768
21
-114.578
0
LINE
8
BLACK
6
CONTINUOUS
10
126.768
20
-114.578
11
127.085
21
-115.372
0
LINE
8
BLACK
6
CONTINUOUS
10
127.085
20
-115.372
11
127.541
21
-116.096
0
LINE
8
BLACK
6
CONTINUOUS
10
127.541
20
-116.096
11
128.122
21
-116.724
0
LINE
8
BLACK
6
CONTINUOUS
10
128.122
20
-116.724
11
128.807
21
-117.236
0
LINE
8
BLACK
6
CONTINUOUS
10
128.807
20
-117.236
11
129.575
21
-117.614
0
LINE
8
BLACK
6
CONTINUOUS
10
129.575
20
-117.614
11
130.398
21
-117.846
0
LINE
8
BLACK
6
CONTINUOUS
10
130.398
20
-117.846
11
131.253
21
-117.925
0
LINE
8
BLACK
6
CONTINUOUS
10
131.253
20
-117.925
11
148.748
21
-117.925
0
LINE
8
BLACK
6
CONTINUOUS
10
148.748
20
-117.925
11
149.237
21
-117.899
0
LINE
8
BLACK
6
CONTINUOUS
10
149.237
20
-117.899
11
150.078
21
-117.732
0
LINE
8
BLACK
6
CONTINUOUS
10
150.078
20
-117.732
11
150.872
21
-117.415
0
LINE
8
BLACK
6
CONTINUOUS
10
150.872
20
-117.415
11
151.596
21
-116.959
0
LINE
8
BLACK
6
CONTINUOUS
10
151.596
20
-116.959
11
152.224
21
-116.378
0
LINE
8
BLACK
6
CONTINUOUS
10
152.224
20
-116.378
11
152.736
21
-115.693
0
LINE
8
BLACK
6
CONTINUOUS
10
152.736
20
-115.693
11
153.114
21
-114.925
0
LINE
8
BLACK
6
CONTINUOUS
10
153.114
20
-114.925
11
153.346
21
-114.102
0
LINE
8
BLACK
6
CONTINUOUS
10
153.346
20
-114.102
11
153.425
21
-113.243
0
LINE
8
BLACK
6
CONTINUOUS
10
153.425
20
-113.243
11
153.505
21
-112.378
0
LINE
8
BLACK
6
CONTINUOUS
10
153.505
20
-112.378
11
153.505
21
-112.376
0
LINE
8
BLACK
6
CONTINUOUS
10
153.505
20
-112.376
11
153.506
21
-112.37
0
LINE
8
BLACK
6
CONTINUOUS
10
153.506
20
-112.37
11
153.507
21
-112.364
0
LINE
8
BLACK
6
CONTINUOUS
10
153.507
20
-112.364
11
153.743
21
-111.527
0
LINE
8
BLACK
6
CONTINUOUS
10
153.743
20
-111.527
11
153.744
21
-111.526
0
LINE
8
BLACK
6
CONTINUOUS
10
153.744
20
-111.526
11
153.746
21
-111.52
0
LINE
8
BLACK
6
CONTINUOUS
10
153.746
20
-111.52
11
153.748
21
-111.515
0
LINE
8
BLACK
6
CONTINUOUS
10
153.748
20
-111.515
11
154.133
21
-110.735
0
LINE
8
BLACK
6
CONTINUOUS
10
154.133
20
-110.735
11
154.133
21
-110.735
0
LINE
8
BLACK
6
CONTINUOUS
10
154.133
20
-110.735
11
154.133
21
-110.735
0
LINE
8
BLACK
6
CONTINUOUS
10
154.133
20
-110.735
11
154.134
21
-110.733
0
LINE
8
BLACK
6
CONTINUOUS
10
154.134
20
-110.733
11
154.137
21
-110.728
0
LINE
8
BLACK
6
CONTINUOUS
10
154.137
20
-110.728
11
154.14
21
-110.723
0
LINE
8
BLACK
6
CONTINUOUS
10
154.14
20
-110.723
11
154.66
21
-110.027
0
LINE
8
BLACK
6
CONTINUOUS
10
154.66
20
-110.027
11
154.661
21
-110.025
0
LINE
8
BLACK
6
CONTINUOUS
10
154.661
20
-110.025
11
154.665
21
-110.021
0
LINE
8
BLACK
6
CONTINUOUS
10
154.665
20
-110.021
11
154.669
21
-110.017
0
LINE
8
BLACK
6
CONTINUOUS
10
154.669
20
-110.017
11
155.307
21
-109.426
0
LINE
8
BLACK
6
CONTINUOUS
10
155.307
20
-109.426
11
155.309
21
-109.425
0
LINE
8
BLACK
6
CONTINUOUS
10
155.309
20
-109.425
11
155.314
21
-109.422
0
LINE
8
BLACK
6
CONTINUOUS
10
155.314
20
-109.422
11
155.318
21
-109.418
0
LINE
8
BLACK
6
CONTINUOUS
10
155.318
20
-109.418
11
156.054
21
-108.954
0
LINE
8
BLACK
6
CONTINUOUS
10
156.054
20
-108.954
11
156.055
21
-108.953
0
LINE
8
BLACK
6
CONTINUOUS
10
156.055
20
-108.953
11
156.06
21
-108.951
0
LINE
8
BLACK
6
CONTINUOUS
10
156.06
20
-108.951
11
156.066
21
-108.948
0
LINE
8
BLACK
6
CONTINUOUS
10
156.066
20
-108.948
11
156.873
21
-108.626
0
LINE
8
BLACK
6
CONTINUOUS
10
156.873
20
-108.626
11
156.875
21
-108.625
0
LINE
8
BLACK
6
CONTINUOUS
10
156.875
20
-108.625
11
156.881
21
-108.624
0
LINE
8
BLACK
6
CONTINUOUS
10
156.881
20
-108.624
11
156.886
21
-108.622
0
LINE
8
BLACK
6
CONTINUOUS
10
156.886
20
-108.622
11
157.739
21
-108.452
0
LINE
8
BLACK
6
CONTINUOUS
10
157.739
20
-108.452
11
157.741
21
-108.452
0
LINE
8
BLACK
6
CONTINUOUS
10
157.741
20
-108.452
11
157.745
21
-108.452
0
LINE
8
BLACK
6
CONTINUOUS
10
157.745
20
-108.452
11
157.75
21
-108.451
0
LINE
8
BLACK
6
CONTINUOUS
10
157.75
20
-108.451
11
158.246
21
-108.425
0
LINE
8
BLACK
6
CONTINUOUS
10
158.246
20
-108.425
11
158.246
21
-108.425
0
LINE
8
BLACK
6
CONTINUOUS
10
158.246
20
-108.425
11
158.737
21
-108.399
0
LINE
8
BLACK
6
CONTINUOUS
10
158.737
20
-108.399
11
159.578
21
-108.232
0
LINE
8
BLACK
6
CONTINUOUS
10
159.578
20
-108.232
11
160.372
21
-107.915
0
LINE
8
BLACK
6
CONTINUOUS
10
160.372
20
-107.915
11
161.096
21
-107.459
0
LINE
8
BLACK
6
CONTINUOUS
10
161.096
20
-107.459
11
161.724
21
-106.878
0
LINE
8
BLACK
6
CONTINUOUS
10
161.724
20
-106.878
11
162.236
21
-106.193
0
LINE
8
BLACK
6
CONTINUOUS
10
162.236
20
-106.193
11
162.614
21
-105.425
0
LINE
8
BLACK
6
CONTINUOUS
10
162.614
20
-105.425
11
162.846
21
-104.602
0
LINE
8
BLACK
6
CONTINUOUS
10
162.846
20
-104.602
11
162.925
21
-103.747
0
LINE
8
BLACK
6
CONTINUOUS
10
162.925
20
-103.747
11
162.925
21
-73.252
0
LINE
8
BLACK
6
CONTINUOUS
10
162.925
20
-73.252
11
162.899
21
-72.7628
0
LINE
8
BLACK
6
CONTINUOUS
10
162.899
20
-72.7628
11
162.732
21
-71.9223
0
LINE
8
BLACK
6
CONTINUOUS
10
162.732
20
-71.9223
11
162.415
21
-71.1277
0
LINE
8
BLACK
6
CONTINUOUS
10
162.415
20
-71.1277
11
161.959
21
-70.4042
0
LINE
8
BLACK
6
CONTINUOUS
10
161.959
20
-70.4042
11
161.378
21
-69.776
0
LINE
8
BLACK
6
CONTINUOUS
10
161.378
20
-69.776
11
160.693
21
-69.2642
0
LINE
8
BLACK
6
CONTINUOUS
10
160.693
20
-69.2642
11
159.925
21
-68.8858
0
LINE
8
BLACK
6
CONTINUOUS
10
159.925
20
-68.8858
11
159.102
21
-68.6536
0
LINE
8
BLACK
6
CONTINUOUS
10
159.102
20
-68.6536
11
158.247
21
-68.575
0
LINE
8
BLACK
6
CONTINUOUS
10
158.247
20
-68.575
11
155.246
21
-68.575
0
LINE
8
BLACK
6
CONTINUOUS
10
155.246
20
-68.575
11
155.243
21
-68.5747
0
LINE
8
BLACK
6
CONTINUOUS
10
155.243
20
-68.5747
11
154.378
21
-68.4951
0
LINE
8
BLACK
6
CONTINUOUS
10
154.378
20
-68.4951
11
154.376
21
-68.4949
0
LINE
8
BLACK
6
CONTINUOUS
10
154.376
20
-68.4949
11
154.37
21
-68.4937
0
LINE
8
BLACK
6
CONTINUOUS
10
154.37
20
-68.4937
11
154.364
21
-68.4926
0
LINE
8
BLACK
6
CONTINUOUS
10
154.364
20
-68.4926
11
153.527
21
-68.2567
0
LINE
8
BLACK
6
CONTINUOUS
10
153.527
20
-68.2567
11
153.526
21
-68.2561
0
LINE
8
BLACK
6
CONTINUOUS
10
153.526
20
-68.2561
11
153.52
21
-68.2539
0
LINE
8
BLACK
6
CONTINUOUS
10
153.52
20
-68.2539
11
153.515
21
-68.2518
0
LINE
8
BLACK
6
CONTINUOUS
10
153.515
20
-68.2518
11
152.735
21
-67.8673
0
LINE
8
BLACK
6
CONTINUOUS
10
152.735
20
-67.8673
11
152.733
21
-67.8664
0
LINE
8
BLACK
6
CONTINUOUS
10
152.733
20
-67.8664
11
152.728
21
-67.8632
0
LINE
8
BLACK
6
CONTINUOUS
10
152.728
20
-67.8632
11
152.723
21
-67.8601
0
LINE
8
BLACK
6
CONTINUOUS
10
152.723
20
-67.8601
11
152.027
21
-67.34
0
LINE
8
BLACK
6
CONTINUOUS
10
152.027
20
-67.34
11
152.025
21
-67.3388
0
LINE
8
BLACK
6
CONTINUOUS
10
152.025
20
-67.3388
11
152.021
21
-67.3348
0
LINE
8
BLACK
6
CONTINUOUS
10
152.021
20
-67.3348
11
152.017
21
-67.3308
0
LINE
8
BLACK
6
CONTINUOUS
10
152.017
20
-67.3308
11
151.427
21
-66.6925
0
LINE
8
BLACK
6
CONTINUOUS
10
151.427
20
-66.6925
11
151.426
21
-66.6925
0
LINE
8
BLACK
6
CONTINUOUS
10
151.426
20
-66.6925
11
151.426
21
-66.6925
0
LINE
8
BLACK
6
CONTINUOUS
10
151.426
20
-66.6925
11
151.425
21
-66.6911
0
LINE
8
BLACK
6
CONTINUOUS
10
151.425
20
-66.6911
11
151.422
21
-66.6863
0
LINE
8
BLACK
6
CONTINUOUS
10
151.422
20
-66.6863
11
151.418
21
-66.6816
0
LINE
8
BLACK
6
CONTINUOUS
10
151.418
20
-66.6816
11
150.954
21
-65.9465
0
LINE
8
BLACK
6
CONTINUOUS
10
150.954
20
-65.9465
11
150.953
21
-65.9448
0
LINE
8
BLACK
6
CONTINUOUS
10
150.953
20
-65.9448
11
150.951
21
-65.9395
0
LINE
8
BLACK
6
CONTINUOUS
10
150.951
20
-65.9395
11
150.948
21
-65.9342
0
LINE
8
BLACK
6
CONTINUOUS
10
150.948
20
-65.9342
11
150.626
21
-65.1269
0
LINE
8
BLACK
6
CONTINUOUS
10
150.626
20
-65.1269
11
150.625
21
-65.125
0
LINE
8
BLACK
6
CONTINUOUS
10
150.625
20
-65.125
11
150.624
21
-65.1194
0
LINE
8
BLACK
6
CONTINUOUS
10
150.624
20
-65.1194
11
150.622
21
-65.1137
0
LINE
8
BLACK
6
CONTINUOUS
10
150.622
20
-65.1137
11
150.452
21
-64.2611
0
LINE
8
BLACK
6
CONTINUOUS
10
150.452
20
-64.2611
11
150.452
21
-64.2592
0
LINE
8
BLACK
6
CONTINUOUS
10
150.452
20
-64.2592
11
150.452
21
-64.2548
0
LINE
8
BLACK
6
CONTINUOUS
10
150.452
20
-64.2548
11
150.451
21
-64.2504
0
LINE
8
BLACK
6
CONTINUOUS
10
150.451
20
-64.2504
11
150.425
21
-63.7539
0
LINE
8
BLACK
6
CONTINUOUS
10
150.425
20
-63.7539
11
150.425
21
-63.752
0
LINE
8
BLACK
6
CONTINUOUS
10
150.425
20
-63.752
11
150.425
21
-63.7511
0
LINE
8
BLACK
6
CONTINUOUS
10
150.425
20
-63.7511
11
150.425
21
-63.7503
0
LINE
8
BLACK
6
CONTINUOUS
10
150.425
20
-63.7503
11
150.425
21
-63.7436
0
LINE
8
BLACK
6
CONTINUOUS
10
150.425
20
-63.7436
11
150.396
21
-63.4635
0
LINE
8
BLACK
6
CONTINUOUS
10
150.396
20
-63.4635
11
150.313
21
-63.1979
0
LINE
8
BLACK
6
CONTINUOUS
10
150.313
20
-63.1979
11
150.181
21
-62.9533
0
LINE
8
BLACK
6
CONTINUOUS
10
150.181
20
-62.9533
11
150.004
21
-62.7391
0
LINE
8
BLACK
6
CONTINUOUS
10
150.004
20
-62.7391
11
149.788
21
-62.5634
0
LINE
8
BLACK
6
CONTINUOUS
10
149.788
20
-62.5634
11
149.543
21
-62.4329
0
LINE
8
BLACK
6
CONTINUOUS
10
149.543
20
-62.4329
11
149.277
21
-62.3525
0
LINE
8
BLACK
6
CONTINUOUS
10
149.277
20
-62.3525
11
148.996
21
-62.325
0
LINE
8
BLACK
6
CONTINUOUS
10
148.996
20
-62.325
11
131
21
-62.325
  0
ENDSEC
  0
EOF
